<svg width="324" height="324" viewBox="0 0 324 324" fill="none" xmlns="http://www.w3.org/2000/svg">
<g clip-path="url(#clip0_10_2)">
<path d="M166 25C166 22.7909 164.209 21 162 21C159.791 21 158 22.7909 158 25V80C158 82.2091 159.791 84 162 84C164.209 84 166 82.2091 166 80V25Z" fill="#EB4444"/>
<path d="M179 17C179 7.61116 171.613 0 162.5 0C153.387 0 146 7.61116 146 17C146 26.3888 153.387 34 162.5 34C171.613 34 179 26.3888 179 17Z" fill="#EB4444"/>
<path d="M25 160C22.7909 160 21 161.791 21 164C21 166.209 22.7909 168 25 168H80C82.2091 168 84 166.209 84 164C84 161.791 82.2091 160 80 160H25Z" fill="#EB4444"/>
<path d="M17 147C7.61116 147 0 154.387 0 163.5C0 172.613 7.61116 180 17 180C26.3888 180 34 172.613 34 163.5C34 154.387 26.3888 147 17 147Z" fill="#EB4444"/>
<path d="M159 299C159 301.209 160.791 303 163 303C165.209 303 167 301.209 167 299V244C167 241.791 165.209 240 163 240C160.791 240 159 241.791 159 244V299Z" fill="#EB4444"/>
<path d="M146 307C146 316.389 153.387 324 162.5 324C171.613 324 179 316.389 179 307C179 297.611 171.613 290 162.5 290C153.387 290 146 297.611 146 307Z" fill="#EB4444"/>
<path d="M299 167C301.209 167 303 165.209 303 163C303 160.791 301.209 159 299 159H244C241.791 159 240 160.791 240 163C240 165.209 241.791 167 244 167H299Z" fill="#EB4444"/>
<path d="M307 180C316.389 180 324 172.613 324 163.5C324 154.387 316.389 147 307 147C297.611 147 290 154.387 290 163.5C290 172.613 297.611 180 307 180Z" fill="#EB4444"/>
<path d="M73.1149 70.3822C58.5559 70.0294 51.1383 71.8149 43.3845 79.5686C32.3999 90.5532 34.8312 109.784 48.9951 123.948C76.4897 151.443 93.1252 145.463 150.632 151.278C144.817 93.7711 151.443 76.4895 123.948 48.9949C109.785 34.831 90.5534 32.3997 79.5688 43.3843C71.8151 51.1381 70.0166 57.9952 73.1149 70.3822Z" fill="#EB4444"/>
<path d="M18 138V63C18 51.0653 22.7411 39.6193 31.1802 31.1802C39.6193 22.7411 51.0653 18 63 18H138" stroke="#EB4444" stroke-width="9" stroke-linecap="round" stroke-linejoin="round"/>
<path d="M255.049 73.1149C255.402 58.5559 253.617 51.1383 245.863 43.3845C234.878 32.3999 215.647 34.8312 201.483 48.9951C173.989 76.4897 179.969 93.1252 174.154 150.632C231.66 144.817 248.942 151.443 276.437 123.948C290.601 109.785 293.032 90.5534 282.047 79.5688C274.294 71.8151 267.436 70.0166 255.049 73.1149Z" fill="#EB4444"/>
<path d="M187.432 18H262.432C274.366 18 285.812 22.7411 294.251 31.1802C302.691 39.6193 307.432 51.0653 307.432 63V138" stroke="#EB4444" stroke-width="9" stroke-linecap="round" stroke-linejoin="round"/>
<path d="M69.3822 253.317C69.0294 267.876 70.8149 275.293 78.5686 283.047C89.5532 294.032 108.784 291.6 122.948 277.437C150.443 249.942 144.463 233.306 150.278 175.8C92.7711 181.615 75.4895 174.989 47.9949 202.483C33.831 216.647 31.3997 235.878 42.3843 246.863C50.1381 254.617 56.9952 256.415 69.3822 253.317Z" fill="#EB4444"/>
<path d="M137 308.432H62C50.0653 308.432 38.6193 303.691 30.1802 295.251C21.7411 286.812 17 275.366 17 263.432V188.432" stroke="#EB4444" stroke-width="9" stroke-linecap="round" stroke-linejoin="round"/>
<path d="M252.317 256.049C266.876 256.402 274.293 254.617 282.047 246.863C293.032 235.878 290.6 216.647 276.437 202.483C248.942 174.989 232.306 180.969 174.8 175.154C180.615 232.66 173.989 249.942 201.483 277.437C215.647 291.601 234.878 294.032 245.863 283.047C253.617 275.294 255.415 268.436 252.317 256.049Z" fill="#EB4444"/>
<path d="M277 265C284.18 265 290 270.82 290 278C290 285.18 284.18 291 277 291C269.82 291 264 285.18 264 278C264 270.82 269.82 265 277 265ZM277 272C273.686 272 271 274.686 271 278C271 281.314 273.686 284 277 284C280.314 284 283 281.314 283 278C283 274.686 280.314 272 277 272Z" fill="#EB4444"/>
<path d="M277 35C284.18 35 290 40.8203 290 48C290 55.1797 284.18 61 277 61C269.82 61 264 55.1797 264 48C264 40.8203 269.82 35 277 35ZM277 42C273.686 42 271 44.6863 271 48C271 51.3137 273.686 54 277 54C280.314 54 283 51.3137 283 48C283 44.6863 280.314 42 277 42Z" fill="#EB4444"/>
<path d="M48 35C55.1797 35 61 40.8203 61 48C61 55.1797 55.1797 61 48 61C40.8203 61 35 55.1797 35 48C35 40.8203 40.8203 35 48 35ZM48 42C44.6863 42 42 44.6863 42 48C42 51.3137 44.6863 54 48 54C51.3137 54 54 51.3137 54 48C54 44.6863 51.3137 42 48 42Z" fill="#EB4444"/>
<path d="M47 265C54.1797 265 60 270.82 60 278C60 285.18 54.1797 291 47 291C39.8203 291 34 285.18 34 278C34 270.82 39.8203 265 47 265ZM47 272C43.6863 272 41 274.686 41 278C41 281.314 43.6863 284 47 284C50.3137 284 53 281.314 53 278C53 274.686 50.3137 272 47 272Z" fill="#EB4444"/>
<path d="M307.432 188.432V263.432C307.432 275.366 302.691 286.812 294.251 295.251C285.812 303.691 274.366 308.432 262.432 308.432H187.432" stroke="#EB4444" stroke-width="9" stroke-linecap="round" stroke-linejoin="round"/>
</g>
<defs>
<clipPath id="clip0_10_2">
<rect width="324" height="324" fill="white"/>
</clipPath>
</defs>
</svg>
