<svg width="324" height="324" viewBox="0 0 324 324" fill="none" xmlns="http://www.w3.org/2000/svg">
<rect x="158" y="21" width="8" height="63" rx="4" fill="#EB4444"/>
<ellipse cx="162.5" cy="17" rx="17" ry="16.5" transform="rotate(-90 162.5 17)" fill="#EB4444"/>
<rect x="21" y="168" width="8" height="63" rx="4" transform="rotate(-90 21 168)" fill="#EB4444"/>
<ellipse cx="17" cy="163.5" rx="17" ry="16.5" transform="rotate(-180 17 163.5)" fill="#EB4444"/>
<rect x="167" y="303" width="8" height="63" rx="4" transform="rotate(180 167 303)" fill="#EB4444"/>
<ellipse cx="162.5" cy="307" rx="17" ry="16.5" transform="rotate(90 162.5 307)" fill="#EB4444"/>
<rect x="303" y="159" width="8" height="63" rx="4" transform="rotate(90 303 159)" fill="#EB4444"/>
<ellipse cx="307" cy="163.5" rx="17" ry="16.5" fill="#EB4444"/>
<path d="M73.1149 70.3822C58.5559 70.0294 51.1383 71.8149 43.3845 79.5686C32.3999 90.5532 34.8312 109.784 48.9951 123.948C76.4897 151.443 93.1252 145.463 150.632 151.278C144.817 93.7711 151.443 76.4895 123.948 48.9949C109.785 34.831 90.5534 32.3997 79.5688 43.3843C71.8151 51.1381 70.0166 57.9952 73.1149 70.3822Z" fill="#EB4444"/>
<ellipse cx="48.3823" cy="48" rx="13.3823" ry="13" fill="#EB4444"/>
<ellipse cx="48.1168" cy="48.1212" rx="5.11677" ry="5.12121" fill="white"/>
<path d="M18 138V63C18 51.0653 22.7411 39.6193 31.1802 31.1802C39.6193 22.7411 51.0653 18 63 18H138" stroke="#EB4444" stroke-width="9" stroke-linecap="round" stroke-linejoin="round"/>
<path d="M255.049 73.1149C255.402 58.5559 253.617 51.1383 245.863 43.3845C234.878 32.3999 215.647 34.8312 201.483 48.9951C173.989 76.4897 179.969 93.1252 174.154 150.632C231.66 144.817 248.942 151.443 276.437 123.948C290.601 109.785 293.032 90.5534 282.047 79.5688C274.294 71.8151 267.436 70.0166 255.049 73.1149Z" fill="#EB4444"/>
<ellipse cx="277.432" cy="48.3823" rx="13.3823" ry="13" transform="rotate(90 277.432 48.3823)" fill="#EB4444"/>
<ellipse cx="277.31" cy="48.1168" rx="5.11677" ry="5.12121" transform="rotate(90 277.31 48.1168)" fill="white"/>
<path d="M187.432 18H262.432C274.366 18 285.812 22.7411 294.251 31.1802C302.691 39.6193 307.432 51.0653 307.432 63V138" stroke="#EB4444" stroke-width="9" stroke-linecap="round" stroke-linejoin="round"/>
<path d="M69.3822 253.317C69.0294 267.876 70.8149 275.293 78.5686 283.047C89.5532 294.032 108.784 291.6 122.948 277.437C150.443 249.942 144.463 233.306 150.278 175.8C92.7711 181.615 75.4895 174.989 47.9949 202.483C33.831 216.647 31.3997 235.878 42.3843 246.863C50.1381 254.617 56.9952 256.415 69.3822 253.317Z" fill="#EB4444"/>
<ellipse cx="47" cy="278.049" rx="13.3823" ry="13" transform="rotate(-90 47 278.049)" fill="#EB4444"/>
<ellipse cx="47.1212" cy="278.315" rx="5.11677" ry="5.12121" transform="rotate(-90 47.1212 278.315)" fill="white"/>
<path d="M137 308.432H62C50.0653 308.432 38.6193 303.691 30.1802 295.251C21.7411 286.812 17 275.366 17 263.432V188.432" stroke="#EB4444" stroke-width="9" stroke-linecap="round" stroke-linejoin="round"/>
<path d="M252.317 256.049C266.876 256.402 274.293 254.617 282.047 246.863C293.032 235.878 290.6 216.647 276.437 202.483C248.942 174.989 232.306 180.969 174.8 175.154C180.615 232.66 173.989 249.942 201.483 277.437C215.647 291.601 234.878 294.032 245.863 283.047C253.617 275.294 255.415 268.436 252.317 256.049Z" fill="#EB4444"/>
<ellipse cx="277.049" cy="278.432" rx="13.3823" ry="13" transform="rotate(180 277.049 278.432)" fill="#EB4444"/>
<ellipse cx="277.315" cy="278.31" rx="5.11677" ry="5.12121" transform="rotate(180 277.315 278.31)" fill="white"/>
<path d="M307.432 188.432V263.432C307.432 275.366 302.691 286.812 294.251 295.251C285.812 303.691 274.366 308.432 262.432 308.432H187.432" stroke="#EB4444" stroke-width="9" stroke-linecap="round" stroke-linejoin="round"/>
</svg>
