<svg width="832" height="324" viewBox="0 0 832 324" fill="none" xmlns="http://www.w3.org/2000/svg">
<g clip-path="url(#clip0_12_3)">
<path d="M166 25C166 22.7909 164.209 21 162 21C159.791 21 158 22.7909 158 25V80C158 82.2091 159.791 84 162 84C164.209 84 166 82.2091 166 80V25Z" fill="#EB4444"/>
<path d="M179 17C179 7.61116 171.613 0 162.5 0C153.387 0 146 7.61116 146 17C146 26.3888 153.387 34 162.5 34C171.613 34 179 26.3888 179 17Z" fill="#EB4444"/>
<path d="M25 160C22.7909 160 21 161.791 21 164C21 166.209 22.7909 168 25 168H80C82.2091 168 84 166.209 84 164C84 161.791 82.2091 160 80 160H25Z" fill="#EB4444"/>
<path d="M17 147C7.61116 147 0 154.387 0 163.5C0 172.613 7.61116 180 17 180C26.3888 180 34 172.613 34 163.5C34 154.387 26.3888 147 17 147Z" fill="#EB4444"/>
<path d="M159 299C159 301.209 160.791 303 163 303C165.209 303 167 301.209 167 299V244C167 241.791 165.209 240 163 240C160.791 240 159 241.791 159 244V299Z" fill="#EB4444"/>
<path d="M146 307C146 316.389 153.387 324 162.5 324C171.613 324 179 316.389 179 307C179 297.611 171.613 290 162.5 290C153.387 290 146 297.611 146 307Z" fill="#EB4444"/>
<path d="M299 167C301.209 167 303 165.209 303 163C303 160.791 301.209 159 299 159H244C241.791 159 240 160.791 240 163C240 165.209 241.791 167 244 167H299Z" fill="#EB4444"/>
<path d="M307 180C316.389 180 324 172.613 324 163.5C324 154.387 316.389 147 307 147C297.611 147 290 154.387 290 163.5C290 172.613 297.611 180 307 180Z" fill="#EB4444"/>
<path d="M73.1149 70.3822C58.5559 70.0294 51.1383 71.8149 43.3845 79.5686C32.3999 90.5532 34.8312 109.784 48.9951 123.948C76.4897 151.443 93.1252 145.463 150.632 151.278C144.817 93.7711 151.443 76.4895 123.948 48.9949C109.785 34.831 90.5534 32.3997 79.5688 43.3843C71.8151 51.1381 70.0166 57.9952 73.1149 70.3822Z" fill="#EB4444"/>
<path d="M18 138V63C18 51.0653 22.7411 39.6193 31.1802 31.1802C39.6193 22.7411 51.0653 18 63 18H138" stroke="#EB4444" stroke-width="9" stroke-linecap="round" stroke-linejoin="round"/>
<path d="M255.049 73.1149C255.402 58.5559 253.617 51.1383 245.863 43.3845C234.878 32.3999 215.647 34.8312 201.483 48.9951C173.989 76.4897 179.969 93.1252 174.154 150.632C231.66 144.817 248.942 151.443 276.437 123.948C290.601 109.785 293.032 90.5534 282.047 79.5688C274.294 71.8151 267.436 70.0166 255.049 73.1149Z" fill="#EB4444"/>
<path d="M187.432 18H262.432C274.366 18 285.812 22.7411 294.251 31.1802C302.691 39.6193 307.432 51.0653 307.432 63V138" stroke="#EB4444" stroke-width="9" stroke-linecap="round" stroke-linejoin="round"/>
<path d="M69.3822 253.317C69.0294 267.876 70.8149 275.293 78.5686 283.047C89.5532 294.032 108.784 291.6 122.948 277.437C150.443 249.942 144.463 233.306 150.278 175.8C92.7711 181.615 75.4895 174.989 47.9949 202.483C33.831 216.647 31.3997 235.878 42.3843 246.863C50.1381 254.617 56.9952 256.415 69.3822 253.317Z" fill="#EB4444"/>
<path d="M137 308.432H62C50.0653 308.432 38.6193 303.691 30.1802 295.251C21.7411 286.812 17 275.366 17 263.432V188.432" stroke="#EB4444" stroke-width="9" stroke-linecap="round" stroke-linejoin="round"/>
<path d="M252.317 256.049C266.876 256.402 274.293 254.617 282.047 246.863C293.032 235.878 290.6 216.647 276.437 202.483C248.942 174.989 232.306 180.969 174.8 175.154C180.615 232.66 173.989 249.942 201.483 277.437C215.647 291.601 234.878 294.032 245.863 283.047C253.617 275.294 255.415 268.436 252.317 256.049Z" fill="#EB4444"/>
<path d="M277 265C284.18 265 290 270.82 290 278C290 285.18 284.18 291 277 291C269.82 291 264 285.18 264 278C264 270.82 269.82 265 277 265ZM277 272C273.686 272 271 274.686 271 278C271 281.314 273.686 284 277 284C280.314 284 283 281.314 283 278C283 274.686 280.314 272 277 272Z" fill="#EB4444"/>
<path d="M277 35C284.18 35 290 40.8203 290 48C290 55.1797 284.18 61 277 61C269.82 61 264 55.1797 264 48C264 40.8203 269.82 35 277 35ZM277 42C273.686 42 271 44.6863 271 48C271 51.3137 273.686 54 277 54C280.314 54 283 51.3137 283 48C283 44.6863 280.314 42 277 42Z" fill="#EB4444"/>
<path d="M48 35C55.1797 35 61 40.8203 61 48C61 55.1797 55.1797 61 48 61C40.8203 61 35 55.1797 35 48C35 40.8203 40.8203 35 48 35ZM48 42C44.6863 42 42 44.6863 42 48C42 51.3137 44.6863 54 48 54C51.3137 54 54 51.3137 54 48C54 44.6863 51.3137 42 48 42Z" fill="#EB4444"/>
<path d="M47 265C54.1797 265 60 270.82 60 278C60 285.18 54.1797 291 47 291C39.8203 291 34 285.18 34 278C34 270.82 39.8203 265 47 265ZM47 272C43.6863 272 41 274.686 41 278C41 281.314 43.6863 284 47 284C50.3137 284 53 281.314 53 278C53 274.686 50.3137 272 47 272Z" fill="#EB4444"/>
<path d="M307.432 188.432V263.432C307.432 275.366 302.691 286.812 294.251 295.251C285.812 303.691 274.366 308.432 262.432 308.432H187.432" stroke="#EB4444" stroke-width="9" stroke-linecap="round" stroke-linejoin="round"/>
</g>
<path d="M377.184 203.4C370.72 203.4 366.144 202.504 363.456 200.712C360.768 198.856 359.424 195.848 359.424 191.688C359.424 187.72 359.424 184.392 359.424 181.704C359.488 178.952 359.52 176.392 359.52 174.024C359.52 170.376 359.392 166.696 359.136 162.984C358.88 159.272 358.368 155.72 357.6 152.328C356.832 148.936 355.68 145.864 354.144 143.112C352.608 140.36 350.56 138.12 348 136.392C352.352 133.064 357.344 131.4 362.976 131.4C366.88 131.4 369.984 132.52 372.288 134.76C374.592 137 376.32 140.008 377.472 143.784C378.624 147.496 379.36 151.624 379.68 156.168C380.064 160.648 380.256 165.16 380.256 169.704C380.256 172.648 380.192 175.496 380.064 178.248C380 181 379.968 183.528 379.968 185.832H382.464C383.936 182.632 385.504 179.016 387.168 174.984C388.832 170.952 390.4 166.856 391.872 162.696C393.344 158.536 394.528 154.6 395.424 150.888C396.384 147.176 396.864 144.072 396.864 141.576C396.864 140.488 396.768 139.528 396.576 138.696C396.384 137.8 396.128 137.032 395.808 136.392C398.24 134.728 400.512 133.48 402.624 132.648C404.8 131.816 407.008 131.4 409.248 131.4C412.768 131.4 415.232 132.424 416.64 134.472C418.112 136.456 418.848 139.048 418.848 142.248C418.848 144.616 418.4 147.4 417.504 150.6C416.608 153.8 415.424 157.192 413.952 160.776C412.544 164.36 411.04 167.944 409.44 171.528C407.84 175.048 406.272 178.376 404.736 181.512C403.264 184.648 402.048 187.368 401.088 189.672L402.432 194.952C400.64 196.424 398.368 197.8 395.616 199.08C392.928 200.36 389.984 201.384 386.784 202.152C383.648 202.984 380.448 203.4 377.184 203.4ZM441.172 137.16C438.228 137.16 435.796 136.52 433.876 135.24C431.956 133.96 430.996 132.232 430.996 130.056C430.996 127.944 431.7 126.216 433.108 124.872C434.516 123.464 436.212 122.408 438.196 121.704C440.244 121 442.164 120.648 443.956 120.648C446.9 120.648 449.332 121.288 451.252 122.568C453.172 123.784 454.132 125.512 454.132 127.752C454.132 129.608 453.524 131.272 452.308 132.744C451.092 134.152 449.492 135.24 447.508 136.008C445.588 136.776 443.476 137.16 441.172 137.16ZM435.412 203.4C431.316 203.4 428.404 202.376 426.676 200.328C424.948 198.28 424.084 195.336 424.084 191.496C424.084 190.088 424.276 188.136 424.66 185.64C425.044 183.08 425.556 180.264 426.196 177.192C426.836 174.056 427.508 170.888 428.212 167.688C428.916 164.488 429.588 161.48 430.228 158.664L424.852 150.6C428.244 148.552 431.476 146.856 434.548 145.512C437.62 144.104 440.692 143.4 443.764 143.4C446.452 143.4 448.308 143.976 449.332 145.128C450.42 146.28 450.964 148.072 450.964 150.504C450.964 151.464 450.708 153.032 450.196 155.208C449.748 157.384 449.172 159.944 448.468 162.888C447.764 165.832 447.06 168.936 446.356 172.2C445.652 175.4 445.044 178.568 444.532 181.704C444.084 184.776 443.86 187.528 443.86 189.96C443.86 191.88 444.084 193.608 444.532 195.144C445.044 196.616 445.812 197.8 446.836 198.696C443.252 201.832 439.444 203.4 435.412 203.4Z" fill="#633A3A"/>
<path d="M477.719 203.4C474.455 203.4 471.415 202.536 468.599 200.808C465.847 199.016 463.607 196.456 461.879 193.128C460.215 189.736 459.383 185.64 459.383 180.84C459.383 176.872 460.119 172.84 461.591 168.744C463.127 164.584 465.431 160.776 468.503 157.32C471.575 153.864 475.447 151.08 480.119 148.968C484.791 146.856 490.327 145.8 496.727 145.8C497.751 145.8 498.743 145.832 499.703 145.896C500.727 145.96 501.783 146.056 502.871 146.184C502.935 145.736 503.063 144.936 503.255 143.784C503.511 142.568 503.671 141.736 503.735 141.288L498.359 133.608C501.751 131.624 504.983 129.96 508.055 128.616C511.127 127.272 514.199 126.6 517.271 126.6C519.959 126.6 521.815 127.144 522.839 128.232C523.927 129.256 524.471 130.984 524.471 133.416C524.471 135.656 524.183 138.472 523.607 141.864C523.031 145.192 522.327 148.84 521.495 152.808C520.663 156.712 519.799 160.744 518.903 164.904C518.071 169.064 517.367 173.064 516.791 176.904C516.215 180.744 515.927 184.232 515.927 187.368C515.927 190.376 516.151 192.808 516.599 194.664C517.111 196.456 517.879 197.8 518.903 198.696C515.319 201.832 511.511 203.4 507.479 203.4C504.727 203.4 502.551 202.888 500.951 201.864C499.415 200.84 498.295 199.592 497.591 198.12C496.887 196.648 496.535 195.272 496.535 193.992L495.575 193.512C493.015 196.904 490.167 199.4 487.031 201C483.895 202.6 480.791 203.4 477.719 203.4ZM487.319 189C488.983 189 490.679 188.584 492.407 187.752C494.135 186.92 495.767 185.608 497.303 183.816C497.751 179.08 498.327 174.184 499.031 169.128C499.735 164.008 500.599 159.048 501.623 154.248C497.719 154.248 494.231 154.952 491.159 156.36C488.151 157.704 485.623 159.528 483.575 161.832C481.591 164.072 480.055 166.536 478.967 169.224C477.943 171.912 477.431 174.568 477.431 177.192C477.431 180.968 478.391 183.88 480.311 185.928C482.295 187.976 484.631 189 487.319 189ZM543.003 203.4C539.099 203.4 536.315 202.376 534.651 200.328C532.987 198.28 532.155 195.336 532.155 191.496C532.155 190.152 532.347 188.104 532.731 185.352C533.115 182.536 533.595 179.432 534.171 176.04C534.811 172.584 535.483 169.128 536.187 165.672C536.891 162.216 537.563 159.144 538.203 156.456L533.211 148.776C536.539 147.304 539.611 146.056 542.427 145.032C545.307 143.944 547.867 143.4 550.107 143.4C551.771 143.4 552.987 143.976 553.755 145.128C554.523 146.28 554.907 147.752 554.907 149.544C554.907 151.592 554.555 153.896 553.851 156.456C553.147 158.952 552.443 161.32 551.739 163.56L552.699 164.04C554.939 157.448 557.467 152.36 560.283 148.776C563.163 145.192 566.363 143.4 569.883 143.4C572.187 143.4 574.043 143.912 575.451 144.936C576.859 145.896 577.883 147.112 578.523 148.584C579.227 149.992 579.579 151.368 579.579 152.712C579.579 154.824 579.035 156.872 577.947 158.856C576.923 160.776 575.259 162.376 572.955 163.656C570.651 164.872 567.611 165.48 563.835 165.48C562.363 165.48 560.923 165.8 559.515 166.44C558.107 167.08 556.827 168.296 555.675 170.088C554.523 171.816 553.595 174.28 552.891 177.48C552.251 180.68 551.931 184.84 551.931 189.96C551.931 193.928 552.603 196.84 553.947 198.696C549.979 201.832 546.331 203.4 543.003 203.4ZM596.573 203.4C592.989 203.4 589.821 202.472 587.069 200.616C584.381 198.76 582.301 196.136 580.829 192.744C579.357 189.352 578.621 185.384 578.621 180.84C578.621 175.528 579.549 170.6 581.405 166.056C583.325 161.512 585.949 157.544 589.277 154.152C592.669 150.76 596.637 148.136 601.181 146.28C605.725 144.36 610.653 143.4 615.965 143.4C617.501 143.4 618.813 143.464 619.901 143.592C621.053 143.656 622.269 143.848 623.549 144.168C623.933 145.96 624.157 147.528 624.221 148.872C625.693 147.912 627.325 147.176 629.117 146.664C630.909 146.088 632.573 145.8 634.109 145.8C638.781 145.8 641.117 148.328 641.117 153.384C641.117 155.048 640.797 157.32 640.157 160.2C639.581 163.016 638.877 166.152 638.045 169.608C637.277 173 636.573 176.488 635.933 180.072C635.357 183.592 635.069 186.888 635.069 189.96C635.069 194.12 636.061 197.032 638.045 198.696C634.461 201.832 630.653 203.4 626.621 203.4C622.909 203.4 620.157 202.248 618.365 199.944C616.637 197.64 615.773 194.056 615.773 189.192L614.813 188.712C613.085 193.32 610.589 196.936 607.325 199.56C604.125 202.12 600.541 203.4 596.573 203.4ZM604.157 185.928C606.653 185.928 609.085 185.032 611.453 183.24C613.821 181.448 615.805 178.984 617.405 175.848C617.661 173.352 617.917 171.016 618.173 168.84C618.493 166.6 618.877 164.232 619.325 161.736C619.837 159.24 620.445 156.296 621.149 152.904C617.885 152.904 614.781 153.544 611.837 154.824C608.957 156.04 606.365 157.736 604.061 159.912C601.757 162.088 599.933 164.584 598.589 167.4C597.309 170.152 596.669 173.064 596.669 176.136C596.669 179.272 597.309 181.704 598.589 183.432C599.933 185.096 601.789 185.928 604.157 185.928Z" fill="#633A3A"/>
<path d="M667.261 203.4C663.165 203.4 660.253 202.184 658.525 199.752C656.797 197.32 655.933 193.608 655.933 188.616C655.933 187.208 656.093 185.224 656.413 182.664C656.733 180.04 657.149 177.128 657.661 173.928C658.237 170.728 658.781 167.56 659.293 164.424C657.949 164.68 656.637 164.968 655.357 165.288C654.141 165.608 652.989 165.96 651.901 166.344C651.645 165.384 651.453 164.424 651.325 163.464C651.261 162.504 651.229 161.8 651.229 161.352C651.229 158.024 652.189 155.624 654.109 154.152C656.093 152.616 658.461 151.848 661.213 151.848C661.213 150.376 661.021 148.744 660.637 146.952C660.253 145.16 659.581 143.176 658.621 141C661.309 139.016 663.997 137.352 666.685 136.008C669.373 134.664 672.349 133.992 675.613 133.992C678.429 133.992 680.381 134.536 681.469 135.624C682.557 136.648 683.101 138.376 683.101 140.808C683.101 142.024 682.973 143.464 682.717 145.128C682.461 146.792 682.141 148.616 681.757 150.6C683.165 150.408 684.509 150.184 685.789 149.928C687.069 149.608 688.317 149.288 689.533 148.968C689.789 149.672 689.949 150.408 690.013 151.176C690.141 151.88 690.205 152.584 690.205 153.288C690.205 155.848 689.405 158.088 687.805 160.008C686.269 161.864 683.869 162.792 680.605 162.792H679.165C678.269 166.888 677.469 171.08 676.765 175.368C676.061 179.656 675.709 183.656 675.709 187.368C675.709 189.864 675.933 192.104 676.381 194.088C676.893 196.008 677.661 197.544 678.685 198.696C675.101 201.832 671.293 203.4 667.261 203.4ZM722.901 203.4C716.949 203.4 711.925 202.344 707.829 200.232C703.733 198.12 700.629 195.176 698.517 191.4C696.469 187.56 695.445 183.144 695.445 178.152C695.445 172.968 696.373 168.264 698.229 164.04C700.149 159.752 702.805 156.072 706.197 153C709.589 149.928 713.525 147.56 718.005 145.896C722.549 144.232 727.445 143.4 732.693 143.4C738.901 143.4 743.477 144.776 746.421 147.528C749.365 150.28 750.837 153.736 750.837 157.896C750.837 161.48 749.653 164.872 747.285 168.072C744.981 171.208 741.237 173.768 736.053 175.752C730.869 177.672 723.957 178.664 715.317 178.728C715.509 182.824 716.437 186.056 718.101 188.424C719.829 190.728 721.973 191.88 724.533 191.88C725.813 191.88 727.157 191.592 728.565 191.016C729.973 190.376 731.157 189.288 732.117 187.752C733.077 186.152 733.557 183.976 733.557 181.224C737.909 181.224 741.333 181.704 743.829 182.664C746.325 183.624 747.573 185.352 747.573 187.848C747.573 190.152 746.581 192.52 744.597 194.952C742.613 197.32 739.765 199.336 736.053 201C732.405 202.6 728.021 203.4 722.901 203.4ZM716.181 171.048C720.853 170.664 724.597 169.8 727.413 168.456C730.229 167.112 732.277 165.576 733.557 163.848C734.837 162.12 735.477 160.52 735.477 159.048C735.477 157.768 735.093 156.712 734.325 155.88C733.557 155.048 732.469 154.632 731.061 154.632C728.757 154.632 726.613 155.432 724.629 157.032C722.645 158.632 720.917 160.712 719.445 163.272C718.037 165.768 716.949 168.36 716.181 171.048ZM771.307 203.4C767.403 203.4 764.619 202.184 762.955 199.752C761.291 197.32 760.459 193.608 760.459 188.616C760.459 187.208 760.619 185.128 760.939 182.376C761.323 179.624 761.803 176.488 762.379 172.968C762.955 169.448 763.595 165.8 764.299 162.024C765.003 158.184 765.675 154.472 766.315 150.888C766.955 147.304 767.531 144.104 768.043 141.288L762.667 133.608C766.059 131.624 769.291 129.96 772.363 128.616C775.435 127.272 778.507 126.6 781.579 126.6C784.267 126.6 786.123 127.144 787.147 128.232C788.235 129.256 788.779 130.984 788.779 133.416C788.779 135.528 788.523 138.12 788.011 141.192C787.499 144.264 786.859 147.656 786.091 151.368C785.323 155.016 784.523 158.792 783.691 162.696C782.859 166.536 782.155 170.28 781.579 173.928L787.627 168.552C789.931 166.504 792.043 164.616 793.963 162.888C795.947 161.16 797.515 159.432 798.667 157.704C799.883 155.912 800.491 153.992 800.491 151.944C800.491 151.048 800.427 150.248 800.299 149.544C800.171 148.84 799.979 148.168 799.723 147.528C804.267 144.776 808.555 143.4 812.587 143.4C815.275 143.4 817.419 144.264 819.019 145.992C820.619 147.656 821.419 149.864 821.419 152.616C821.419 155.24 820.651 157.736 819.115 160.104C817.643 162.472 815.723 164.616 813.355 166.536C811.051 168.392 808.683 170.024 806.251 171.432C807.659 175.912 809.291 180.168 811.147 184.2C813.067 188.232 814.987 191.624 816.907 194.376C818.827 197.064 820.459 198.76 821.803 199.464C820.523 200.808 818.731 201.8 816.427 202.44C814.123 203.08 811.947 203.4 809.899 203.4C805.931 203.4 802.603 202.056 799.915 199.368C797.227 196.68 794.795 192.264 792.619 186.12L790.219 179.304L780.331 184.2C780.267 184.712 780.235 185.256 780.235 185.832C780.235 186.344 780.235 186.856 780.235 187.368C780.235 189.864 780.459 192.104 780.907 194.088C781.419 196.008 782.187 197.544 783.211 198.696C778.731 201.832 774.763 203.4 771.307 203.4Z" fill="#DE4343"/>
<defs>
<clipPath id="clip0_12_3">
<rect width="324" height="324" fill="white"/>
</clipPath>
</defs>
</svg>
